<?xml version="1.0" encoding="UTF-8"?>
<svg id="Layer_2" data-name="Layer 2" xmlns="http://www.w3.org/2000/svg" viewBox="0 0 200.13 162.23">
  <g id="Layer_1-2" data-name="Layer 1">
    <g id="gBqt5G">
      <path d="M36.3,162.23c-7.87-1.3-16.37-1.36-24.5-2.54C10.11,159.44-.02,158.05,0,156.98l51.44-50.03C28.75,76.88,18.24,37.06,27.84,0l63.75,66.98c7.79-6.89,14.46-16.55,23.79-21.39,17.97-9.3,43.1-4.3,52.62,14.39,1.42,2.79,2.59,8.68,4.38,10.15l27.75,10.99-29.67,11.08c-16.68,46.3-66.23,67.55-112.36,70.03h-21.79ZM141.83,66.34c-11.12,1.66-10.62,18.09-.22,19.24,15.78,1.75,13.99-21.3.22-19.24Z"/>
    </g>
  </g>
</svg>