<?xml version="1.0" encoding="UTF-8"?>
<svg id="Layer_2" data-name="Layer 2" xmlns="http://www.w3.org/2000/svg" viewBox="0 0 182.63 197.61">
  <defs>
    <style>
      .cls-1 {
        fill: #fff;
      }

      .cls-2 {
        opacity: .94;
      }
    </style>
  </defs>
  <g id="Layer_1-2" data-name="Layer 1">
    <g id="SX1wlQ" class="cls-2">
      <g>
        <path d="M0,197.6v-33.94l1.23-5.44V39.39c-.37-2.03-.19-4.45-1.23-6.24V.02l85.07-.02c28.92.96,54.8,6.87,74.52,29.32,28.43,32.37,30.54,90.31,6.4,125.57-23.18,33.85-55.73,40.18-94.66,42.72l-71.33-.02ZM49.7,31.94v127.48c0,1.44,1.37,4.19,2.69,4.99,3.53,2.14,19.83,1.35,24.58.87,20.18-2.04,34.45-10.29,44.05-28.27,13.27-24.84,11.56-64.08-5.13-87.01-16.33-22.42-41.64-17.5-66.19-18.05Z"/>
        <path class="cls-1" d="M0,33.15c1.03,1.8.86,4.21,1.23,6.24v118.83s-1.23,5.44-1.23,5.44"/>
      </g>
    </g>
  </g>
</svg>